<svg width="100" height="100" viewBox="0 0 100 100" fill="none" xmlns="http://www.w3.org/2000/svg">
<g id="ccc1">
<circle id="Ellipse 1" cx="5" cy="5" r="5" fill="#3174D0"/>
<circle id="Ellipse 2" cx="5" cy="20" r="5" fill="#3174D0"/>
<circle id="Ellipse 15" cx="20" cy="20" r="5" fill="#3174D0"/>
<circle id="Ellipse 3" cx="5" cy="20" r="5" fill="#3174D0"/>
<circle id="Ellipse 16" cx="20" cy="20" r="5" fill="#3174D0"/>
<circle id="Ellipse 4" cx="5" cy="35" r="5" fill="#3174D0"/>
<circle id="Ellipse 17" cx="20" cy="35" r="5" fill="#3174D0"/>
<circle id="Ellipse 21" cx="35" cy="35" r="5" fill="#3174D0"/>
<circle id="Ellipse 5" cx="5" cy="50" r="5" fill="#3174D0"/>
<circle id="Ellipse 18" cx="20" cy="50" r="5" fill="#3174D0"/>
<circle id="Ellipse 22" cx="35" cy="50" r="5" fill="#3174D0"/>
<circle id="Ellipse 25" cx="50" cy="50" r="5" fill="#3174D0"/>
<circle id="Ellipse 6" cx="5" cy="65" r="5" fill="#3174D0"/>
<circle id="Ellipse 19" cx="20" cy="65" r="5" fill="#3174D0"/>
<circle id="Ellipse 23" cx="35" cy="65" r="5" fill="#3174D0"/>
<circle id="Ellipse 26" cx="50" cy="65" r="5" fill="#3174D0"/>
<circle id="Ellipse 28" cx="65" cy="65" r="5" fill="#3174D0"/>
<circle id="Ellipse 7" cx="5" cy="80" r="5" fill="#3174D0"/>
<circle id="Ellipse 20" cx="20" cy="80" r="5" fill="#3174D0"/>
<circle id="Ellipse 24" cx="35" cy="80" r="5" fill="#3174D0"/>
<circle id="Ellipse 27" cx="50" cy="80" r="5" fill="#3174D0"/>
<circle id="Ellipse 29" cx="65" cy="80" r="5" fill="#3174D0"/>
<circle id="Ellipse 30" cx="80" cy="80" r="5" fill="#3174D0"/>
<circle id="Ellipse 8" cx="5" cy="95" r="5" fill="#3174D0"/>
<circle id="Ellipse 9" cx="20" cy="95" r="5" fill="#3174D0"/>
<circle id="Ellipse 10" cx="35" cy="95" r="5" fill="#3174D0"/>
<circle id="Ellipse 11" cx="50" cy="95" r="5" fill="#3174D0"/>
<circle id="Ellipse 12" cx="65" cy="95" r="5" fill="#3174D0"/>
<circle id="Ellipse 13" cx="80" cy="95" r="5" fill="#3174D0"/>
<circle id="Ellipse 14" cx="95" cy="95" r="5" fill="#3174D0"/>
</g>
</svg>
