<svg width="195" height="166" viewBox="0 0 195 166" fill="none" xmlns="http://www.w3.org/2000/svg">
<g id="Group 1">
<path id="y1" d="M0 15C0 6.71573 6.71573 0 15 0L195 0V31H15C6.71573 31 0 24.2843 0 16L0 15Z" fill="#E5BF07"/>
<path id="y2" d="M62 60C62 51.7157 68.7157 45 77 45H195V76H77C68.7157 76 62 69.2843 62 61V60Z" fill="#E5BF07"/>
<path id="r1" d="M32 105C32 96.7157 38.7157 90 47 90H195V121H47C38.7157 121 32 114.284 32 106V105Z" fill="#C90F0C"/>
<path id="y3" d="M96 150C96 141.716 102.716 135 111 135H195V166H111C102.716 166 96 159.284 96 151V150Z" fill="#EFBF07"/>
</g>
</svg>
